# xmcd
#
# Track frame offsets: 
#        150
#        13733
#        24772
#        37174
#        47780
#        68837
#        83409
#        95952
#        114213
#        131922
#        149227
#
# Disc length: 2123 seconds
#
# Revision: 0
# Processed by: cddbd v1.5.2PL0 Copyright (c) Steve Scherf et al.
# Submitted via: ExactAudioCopy v0.90b4
#
DISCID=9908490b
DTITLE=Wayne Hancock - Ride
DYEAR=2012
DGENRE=Country
TTITLE0=Ride
TTITLE1=Low Down Blues
TTITLE2=Best To Be Alone
TTITLE3=Lone Road Home
TTITLE4=Get The Blues Low Down
TTITLE5=Deal Gone Down
TTITLE6=Fair Weather Blues
TTITLE7=Home With My Baby
TTITLE8=Gal From Kitchen's Field
TTITLE9=Cappachino Boogie
TTITLE10=Any Old Time
EXTD=
EXTT0=
EXTT1=
EXTT2=
EXTT3=
EXTT4=
EXTT5=
EXTT6=
EXTT7=
EXTT8=
EXTT9=
EXTT10=
PLAYORDER=
